<svg xmlns="http://www.w3.org/2000/svg" width="512" height="512" viewBox="0 0 682.667 682.667" xmlns:v="https://vecta.io/nano"><defs><clipPath id="A"><path d="M0 512h512V0H0Z" fill="#fff"/></clipPath></defs><g clip-path="url(#A)" transform="matrix(1.33333 0 0 -1.33333 0 682.667)" fill="none" stroke="#fff" stroke-width="15" stroke-linejoin="round" stroke-miterlimit="10"><path d="M8.047 271.67l51.281 129.987a7.81 7.81 0 0 0 10.135 4.401l40.805-16.098a7.81 7.81 0 0 0 4.401-10.135L63.388 249.837a7.81 7.81 0 0 0-10.135-4.4l-40.805 16.097c-4.014 1.584-5.984 6.122-4.401 10.136z"/><g stroke-linecap="round"><path d="M367.418 198.96l-26.695 20.569m-9.026-49.312l-23.732 18.271m-15.53-44.448l-16.913 13.089"/></g><path d="M114.144 187.034h0a19.83 19.83 0 0 0-2.3 27.945l18.539 21.761a19.83 19.83 0 0 0 30.245-25.644l-18.539-21.762a19.83 19.83 0 0 0-27.945-2.3z"/><path d="M144.388 161.39h0c-8.352 7.082-9.381 19.593-2.3 27.945l18.54 21.761a19.83 19.83 0 0 0 30.245-25.644l-18.54-21.762a19.83 19.83 0 0 0-27.945-2.3z"/><path d="M174.633 135.744h0a19.83 19.83 0 0 0-2.3 27.945l18.54 21.762c7.081 8.351 19.593 9.381 27.945 2.299a19.83 19.83 0 0 0 2.299-27.944l-18.539-21.762a19.83 19.83 0 0 0-27.945-2.3z"/><path d="M204.878 110.1h0a19.83 19.83 0 0 0-2.3 27.945l18.539 21.761a19.83 19.83 0 0 0 30.245-25.644L232.823 112.4a19.83 19.83 0 0 0-27.945-2.3z"/><path d="M400.683 230.322l-9.972 7.359-46.9 34.613-5.374 3.778c-44.276-7.521-73.959 16.739-86.042 29.356-3.554 3.712-9.42 3.853-13.243.419-41.517-37.287-65.559-27.73-77.232-16.638-5.613 5.333-4.647 14.526 1.87 18.709 22.315 14.323 43.153 32.452 58.042 46.581l-2.651.993a99.66 99.66 0 0 1-29.378 6.18l-27.457 1.542c-3.596.202-7.203.247-10.797.016a42.22 42.22 0 0 0-19.008 3.186l-19.879 8.318-48.754-123.581 38.543-24.308 12.198-8.574 15.735 18.468a19.83 19.83 0 0 0 30.244-25.644 19.83 19.83 0 0 0 30.245-25.645 19.83 19.83 0 0 0 30.245-25.644c7.082 8.351 19.593 9.381 27.945 2.3a19.83 19.83 0 0 0 2.3-27.945l-7.52-8.827 16.553-12.217c9.193-6.784 22.148-6.005 30.041 2.254 7.683 8.038 8.141 20.138 1.999 28.668l8.3-6.125c9.466-6.986 22.873-5.914 30.653 2.909 7.537 8.547 7.346 21.087.308 29.394l4.663-3.44c9.026-6.661 21.712-6.057 29.653 1.866 8.442 8.423 8.666 21.619 1.406 30.317l7-5.167a22.5 22.5 0 0 1 31.086 4.255c7.851 10.046 5.437 24.703-4.822 32.274z"/><g stroke-linecap="round"><path d="M288.485 370.25l-28.468 4.512c-9.631 1.527-19.418-1.662-26.273-8.596-14.126-14.29-40.784-39.524-69.954-58.247-6.517-4.183-7.484-13.375-1.87-18.709 11.672-11.091 35.714-20.648 77.232 16.639 3.823 3.434 9.688 3.293 13.243-.419 12.103-12.638 41.859-36.96 86.253-29.325l66.746-49.259 41.717 26.796-47.639 120.756-28.955-10.689a50.01 50.01 0 0 0-25.141-2.477l-22.113 3.505"/><path d="M472.442 351.543l-19.771 50.114c-1.584 4.014-6.121 5.984-10.135 4.401l-40.805-16.098c-4.014-1.584-5.984-6.121-4.401-10.135l51.281-129.988c1.584-4.014 6.121-5.984 10.135-4.401l40.805 16.098a7.81 7.81 0 0 1 4.401 10.135l-18.65 47.275"/></g></g></svg>