<svg xmlns="http://www.w3.org/2000/svg" width="512" height="512" xmlns:v="https://vecta.io/nano"><circle cx="256" cy="289.1" r="222.9" fill="#fa0"/><path d="M478.9 289.1C478.9 412.2 379.1 512 256 512c-70.3 0-133-32.5-173.9-83.4 38.2 30.7 86.7 49 139.5 49 123.1 0 222.9-99.8 222.9-222.9 0-52.8-18.4-101.3-49.1-139.5 51 40.8 83.5 103.6 83.5 173.9z" opacity=".15"/><path fill="#bd2100" d="M252.8 87.3c-4.3-24.5-8.8-60.4 5.8-82.1 7.2-10.8 23.8-2.1 17.4 10.4-2.3 4.4-6.3 11.9-8.7 18.2-3.9 10.6-5.1 21.8-5.9 33.8-.4 6.3-.5 12.7-.3 18.9.1 5-7.3 5.8-8.3.8z"/><circle cx="267.5" cy="9.9" r="9.9" fill="#ef3939"/><path fill="#00973d" d="M149.9 11.1c3.9 25 22.8 103.8 106.1 80 0-86.6-80.9-83.2-106.1-80z"/><path fill="#0dd960" d="M149.9 11.1C175.1 7.9 256 4.5 256 91.1z"/><path fill="#00973d" d="M339.7 27.9c-3.1 19.8-18 82-83.8 63.2.1-68.4 64-65.7 83.8-63.2z"/><path fill="#0dd960" d="M339.7 27.9c-19.9-2.5-83.8-5.2-83.8 63.2z"/><path fill="#bd2100" d="M196 358.8c-2.5 1.2-5 3.1-7.2 5.9 0 0 5.3-19.1 21.2-7.8l-10.6.6s11.3 19.8 56.6 19.8 56.6-19.8 56.6-19.8l-10.6-.6c15.9-11.3 21.2 7.8 21.2 7.8-2.1-2.8-4.6-4.7-7.2-5.9 0 0-9.7 37.4-60 37.4s-60-37.4-60-37.4z"/><path fill="#661300" d="M197.7 357.8s10.5 21.5 58.3 21.5 58.3-21.5 58.3-21.5-8.9 34.6-58.3 34.6-58.3-34.6-58.3-34.6z"/><g fill="#bd2100"><path d="M392.1 156.2c.3-1.4-1-3.9-1-3.9s-14.4-18.6-35.4-27.5-36.4-8.9-47.4-4.7c-11.4 4.4-25.3 14.8-18.9 31.5 3.4 8.7 11.5 5.3 20.4 3.2s36.1-11.2 76.2 2.9c4.4 1.5 5.7.1 6.1-1.5zm-272.2 0c-.3-1.4 1-3.9 1-3.9s14.4-18.6 35.4-27.5 36.3-8.9 47.3-4.7c11.4 4.4 25.3 14.8 18.9 31.5-3.4 8.7-11.5 5.3-20.4 3.2s-36.1-11.2-76.2 2.9c-4.3 1.5-5.6.1-6-1.5z"/><ellipse cx="180.6" cy="239.4" rx="67.6" ry="74.7"/></g><ellipse cx="181" cy="241.6" fill="#fff" rx="64.2" ry="69.9"/><ellipse cx="183.4" cy="241.7" fill="#1e1e1e" rx="42.6" ry="44.2"/><ellipse cx="183.4" cy="241.7" fill="#ff9700" rx="36.4" ry="37.8"/><ellipse cx="183.4" cy="241.7" fill="#1e1e1e" rx="22.5" ry="23.4"/><g fill="#fff"><circle cx="163.2" cy="221.3" r="16.1"/><circle cx="188.8" cy="260.8" r="6.9"/></g><path fill="#bd2100" d="M399 239.4c0 41.2-30.2 74.7-67.6 74.7s-67.6-33.4-67.6-74.7 30.2-74.7 67.6-74.7 67.6 33.5 67.6 74.7z"/><path fill="#fff" d="M395.2 241.6c0 38.6-28.8 69.9-64.2 69.9s-64.2-31.3-64.2-69.9 28.8-69.9 64.2-69.9 64.2 31.3 64.2 69.9z"/><path fill="#1e1e1e" d="M371.2 241.7c0 24.4-19.1 44.2-42.6 44.2S286 266.1 286 241.7s19.1-44.2 42.6-44.2 42.6 19.8 42.6 44.2z"/><path fill="#ff9700" d="M365 241.7c0 20.9-16.3 37.8-36.4 37.8s-36.4-16.9-36.4-37.8 16.3-37.8 36.4-37.8 36.4 16.9 36.4 37.8z"/><path fill="#1e1e1e" d="M351.1 241.7c0 12.9-10.1 23.4-22.5 23.4s-22.5-10.5-22.5-23.4 10.1-23.4 22.5-23.4 22.5 10.5 22.5 23.4z"/><g fill="#fff"><circle cx="348.8" cy="221.3" r="16.1"/><circle cx="323.2" cy="260.8" r="6.9"/></g><path fill="#bd2100" d="M258.3 507.2c-31.8 0-43.4-30.6-43.4-51.2 0-12.2 6.1-28.5 15.2-49.2 5.3-12 6.8-25.2 5.6-47.2-.5-8.7 2.4-13.7 4.9-16.3 3-3.2 7.3-5 12.1-5 9.5 0 18.6 6.5 21.2 15.2 3.4 11.1 4.2 24.5 2.4 39.2.9-.1 1.9-.1 3-.1 9.1 0 16.5 2.7 21.4 7.9 4.3 4.5 6.7 10.6 7.1 18.3 4.1.3 10.1 1.5 14.6 6.2 4 4.1 5.9 10 5.7 17.4-.6 19.3-14.7 22.4-21.1 22.8.2 6.5-.9 17.6-8.6 26.8-8.2 10.1-21.7 15.2-40.1 15.2z"/><path fill="#ffbe3f" d="M234.3 408.7c5.4-12.2 7.3-25.8 5.9-49.3s24.9-18.8 29.2-4.5c3.6 11.9 4.1 26.8 1.4 43.3 0 0 33.8-8.1 32.4 25.5 0 0 21-3.2 20.3 18.7s-21.6 18.1-21.6 18.1 8 42.1-43.7 42.1c-29.9 0-38.8-29.6-38.8-46.6.1-11.5 6.5-28.1 14.9-47.3z"/><path d="M272.5 397.8c-2.5 2.9-5.8 8.6-5.8 8.6s1.7-6.1 4.4-10l-.3 1.7c0 .1.7-.1 1.7-.3zm32.2 25.7c-3.4 2.8-8.8 8.8-9 9 .1-.3 3.6-7.3 7.5-10.6v1.8c.1-.1.6-.2 1.5-.2zm-2.7 37s.1.6.2 1.8c-4.8-3.4-11.2-4.3-11.2-4.3s9.8-.6 14.4 2.7c-2 0-3.4-.2-3.4-.2z" fill="#bd2100"/></svg>