<svg xmlns="http://www.w3.org/2000/svg" fill="none" height="40" width="40" xmlns:v="https://vecta.io/nano"><path fill="#221f1f" d="M40 20.088C39.956 31.136 30.947 40.044 19.912 40S-.044 30.959 0 19.912 9.053-.044 20.088 0C31.145.044 40.044 9.041 40 20.088z"/><path fill="#05bc52" d="M27.203 29.901c-2.114 3.793-4.736 6.902-7.665 6.836-1.828-.044-3.568-.728-5.154-1.808.507-.926 3.701-5.557 12.819-5.027zm12.269-9.812c-.044 10.739-8.811 19.427-19.559 19.36C9.164 39.405.529 30.65.529 19.912c0-6.968 3.48-11.973 6.784-14.664 4.053-3.286 6.806-.772 7.775 1.147-.11-.816-.441-3.153-1.344-4.829A18.86 18.86 0 0 1 20.088.529c10.749.066 19.427 8.798 19.383 19.559zM18.965 8.887c2.819-1.918 7.687-2.977 10.264 1.036C27.666.75 20.903 6.02 18.965 8.887zm-3.921 8.666c.595-.662 1.278-1.323 2.07-1.918 3.524-2.712 7.379-3.396 8.634-1.499.485.728.507 1.742.132 2.845 1.255-2.073 1.652-3.991.881-5.05-1.299-1.764-5.33-.551-9.009 2.712-1.079.904-1.982 1.918-2.709 2.911zm-6.145 1.632c1.784.331 3.722-1.94 4.317-5.116s-.352-5.998-2.137-6.351c-1.784-.331-3.722 1.94-4.317 5.116-.595 3.153.352 5.998 2.137 6.351zm24.802-3.837C16.63 26.792 4.846 20.992 4.846 20.992c-.176 3.969 6.63 16.163 14.736 16.317 8.128.154 14.119-21.962 14.119-21.962zM7.247 12.9c.551-2.911 2.225-5.028 3.744-4.719 1.52.287 2.313 2.889 1.784 5.799-.551 2.911-2.225 5.028-3.744 4.719-1.542-.287-2.335-2.889-1.784-5.799zm3.238 2.47c.683.154 1.432-.684 1.696-1.852s-.088-2.249-.771-2.381c-.463-.11-.947.242-1.299.838a.68.68 0 0 1 .308.882c-.132.309-.441.463-.749.397-.132 1.036.198 1.963.815 2.117z"/></svg>